# Made in Blockbench 4.12.4
mtllib infusion_pillar.mtl

o pillar
v -0.5 0 0.5
v -0.5 0 -0.5
v 0.5 0 -0.5
v 0.5 0 0.5
v 0.20799999999999996 1.8505 0.583
v 0.5281 1.663 0.5281
v 0.583 1.8505 0.20799999999999996
v 0.263 2.038 0.263
v 0.5 0.5 0.5
v -0.5 0.5 0.5
v 0.5 0.5 -0.5
v -0.5 0.5 -0.5
v 0.375 0.5 0.375
v -0.375 0.5 0.375
v 0.375 0.5 -0.375
v -0.375 0.5 -0.375
v 0.3479 0.8799 0.3479
v -0.26649999999999996 0.9943 0.35850000000000004
v 0.35850000000000004 0.9943 -0.26649999999999996
v -0.2558 1.1087 -0.2558
v 0.3974 1.2782 0.3974
v -0.0691 1.4549 0.43089999999999995
v 0.43089999999999995 1.4549 -0.0691
v -0.03560000000000002 1.6317 -0.03560000000000002
vt 0.625 0
vt 0.625 0.375
vt 1 0.375
vt 1 0.375
vt 1 0
vt 0.625 0
vt 0.75 0.8906499999999999
vt 0.9375 0.8906499999999999
vt 0.9375 0.7031499999999999
vt 0.9375 0.7031499999999999
vt 0.75 0.7031499999999999
vt 0.75 0.8906499999999999
vt 0.625 0.5938
vt 1 0.5938
vt 1 0.4063
vt 1 0.4063
vt 0.625 0.4063
vt 0.625 0.5938
vt 0.625 0.5938
vt 1 0.5938
vt 1 0.4063
vt 1 0.4063
vt 0.625 0.4063
vt 0.625 0.5938
vt 0.625 0.5938
vt 1 0.5938
vt 1 0.4063
vt 1 0.4063
vt 0.625 0.4063
vt 0.625 0.5938
vt 0.625 0.5938
vt 1 0.5938
vt 1 0.4063
vt 1 0.4063
vt 0.625 0.4063
vt 0.625 0.5938
vt 0.625 0.375
vt 1 0.375
vt 0.9531 0.32809999999999995
vt 0.9531 0.32809999999999995
vt 0.6719 0.32809999999999995
vt 0.625 0.375
vt 1 0.375
vt 1 0
vt 0.9531 0.04690000000000005
vt 0.9531 0.04690000000000005
vt 0.9531 0.32809999999999995
vt 1 0.375
vt 1 0
vt 0.625 0
vt 0.6719 0.04690000000000005
vt 0.6719 0.04690000000000005
vt 0.9531 0.04690000000000005
vt 1 0
vt 0.625 0
vt 0.625 0.375
vt 0.6719 0.32809999999999995
vt 0.6719 0.32809999999999995
vt 0.6719 0.04690000000000005
vt 0.625 0
vt 0.015625 0.1875
vt 0.296925 0.1875
vt 0.296925 0
vt 0.296925 0
vt 0.015625 0
vt 0.015625 0.1875
vt 0.0156 0.578125
vt 0.2969 0.578125
vt 0.2969 0.390625
vt 0.296925 0.39059999999999995
vt 0.015625 0.39059999999999995
vt 0.015625 0.5781000000000001
vt 0.0156 0.5781000000000001
vt 0.2969 0.5781000000000001
vt 0.2969 0.39059999999999995
vt 0.2969 0.39059999999999995
vt 0.0156 0.39059999999999995
vt 0.0156 0.5781000000000001
vt 0.015625 0.578125
vt 0.296925 0.578125
vt 0.296925 0.390625
vt 0.2969 0.390625
vt 0.0156 0.390625
vt 0.0156 0.578125
vt 0.015625 0.1875
vt 0.296925 0.1875
vt 0.296925 0
vt 0.296925 0
vt 0.015625 0
vt 0.015625 0.1875
vt 0.015625 0.5781000000000001
vt 0.296925 0.5781000000000001
vt 0.296925 0.39059999999999995
vt 0.296925 0.39059999999999995
vt 0.015625 0.39059999999999995
vt 0.015625 0.5781000000000001
vt 0.0156 0.1875
vt 0.2969 0.1875
vt 0.2969 0
vt 0.2969 0
vt 0.0156 0
vt 0.0156 0.1875
vt 0.0156 0.1875
vt 0.2969 0.1875
vt 0.2969 0
vt 0.2969 0
vt 0.0156 0
vt 0.0156 0.1875
vt 0.015625 0.39059999999999995
vt 0.296925 0.39059999999999995
vt 0.296925 0.1875
vt 0.296925 0.1875
vt 0.015625 0.1875
vt 0.015625 0.39059999999999995
vt 0.0156 0.390625
vt 0.2969 0.390625
vt 0.2969 0.18752500000000005
vt 0.296925 0.18752500000000005
vt 0.015625 0.18752500000000005
vt 0.015625 0.390625
vt 0.0156 0.39059999999999995
vt 0.2969 0.39059999999999995
vt 0.2969 0.1875
vt 0.2969 0.1875
vt 0.0156 0.1875
vt 0.0156 0.39059999999999995
vt 0.0156 0.39059999999999995
vt 0.2969 0.39059999999999995
vt 0.2969 0.1875
vt 0.2969 0.1875
vt 0.0156 0.1875
vt 0.0156 0.39059999999999995
vn 0 -1 0
vn 0 -1 0
vn 0.49996704325872676 0.7071533859851433 0.49996704325872676
vn 0.500155628185809 0.7068866211692774 0.500155628185809
vn 0 0 1
vn 0 0 1
vn 1 0 0
vn 1 0 0
vn 0 0 -1
vn 0 0 -1
vn -1 0 0
vn -1 0 0
vn 0 1 0
vn 0 1 0
vn 0 1 0
vn 0 1 0
vn 0 1 0
vn 0 1 0
vn 0 1 0
vn 0 1 0
vn 0 0.07115375425232341 0.9974653594264816
vn 0.022531666990657558 0.02841283047131313 0.9993423012397857
vn 0.9994433349960422 0.03336195635734302 0
vn 0.9968320716873029 0.0733091040566645 0.030847951601510222
vn 0 0.19217700880900146 -0.9813602790439528
vn 0.02304721311160715 0.21507505437636892 -0.976325533289379
vn -0.976746361763565 0.21439809882934818 0
vn -0.9818610567279332 0.1887410484742953 0.018046659024044467
vn -0.005711045424291733 -0.12262841146987728 0.9924362229687791
vn 0.010422645218507684 -0.1596288931303055 0.9871220719569808
vn 0.9885231924673837 -0.15066820765941852 -0.01099950702487492
vn 0.99173284268552 -0.1261625991832925 0.0234300513489327
vn 0.052488253586069906 0.36865409562051044 -0.9280835851461378
vn 0.07873881106605349 0.38221457594625996 -0.9207128855219335
vn -0.9208588576487334 0.3858793554803866 0.055821924939141794
vn -0.929607458177211 0.36177395645155136 0.07035323826730479
vn -0.04787706153831314 -0.30662482362400584 0.9506255858727999
vn -0.03582930711679379 -0.33667475817471765 0.9409390883365013
vn 0.9442900317463906 -0.3244707151113757 -0.0550916597999487
vn 0.948871936504377 -0.31491302750142675 -0.02172172240683308
vn 0.13637074932573856 0.5196378201186833 -0.8434331951201823
vn 0.16284751064704725 0.5232857968396477 -0.8364524272796121
vn -0.8355442567256078 0.5309615780532422 0.14122888402895026
vn -0.8466308233088082 0.509675820293725 0.1531235031971526
usemtl m_4a9ab8fe-6aea-b66c-128c-b17b8e7aafca
f 1/1/1 2/2/1 3/3/1
f 3/4/2 4/5/2 1/6/2
f 5/7/3 6/8/3 7/9/3
f 7/10/4 8/11/4 5/12/4
f 1/13/5 4/14/5 9/15/5
f 9/16/6 10/17/6 1/18/6
f 4/19/7 3/20/7 11/21/7
f 11/22/8 9/23/8 4/24/8
f 3/25/9 2/26/9 12/27/9
f 12/28/10 11/29/10 3/30/10
f 2/31/11 1/32/11 10/33/11
f 10/34/12 12/35/12 2/36/12
f 10/37/13 9/38/13 13/39/13
f 13/40/14 14/41/14 10/42/14
f 9/43/15 11/44/15 15/45/15
f 15/46/16 13/47/16 9/48/16
f 11/49/17 12/50/17 16/51/17
f 16/52/18 15/53/18 11/54/18
f 12/55/19 10/56/19 14/57/19
f 14/58/20 16/59/20 12/60/20
f 14/61/21 13/62/21 17/63/21
f 17/64/22 18/65/22 14/66/22
f 13/67/23 15/68/23 19/69/23
f 19/70/24 17/71/24 13/72/24
f 15/73/25 16/74/25 20/75/25
f 20/76/26 19/77/26 15/78/26
f 16/79/27 14/80/27 18/81/27
f 18/82/28 20/83/28 16/84/28
f 18/85/29 17/86/29 21/87/29
f 21/88/30 22/89/30 18/90/30
f 17/91/31 19/92/31 23/93/31
f 23/94/32 21/95/32 17/96/32
f 19/97/33 20/98/33 24/99/33
f 24/100/34 23/101/34 19/102/34
f 20/103/35 18/104/35 22/105/35
f 22/106/36 24/107/36 20/108/36
f 22/109/37 21/110/37 6/111/37
f 6/112/38 5/113/38 22/114/38
f 21/115/39 23/116/39 7/117/39
f 7/118/40 6/119/40 21/120/40
f 23/121/41 24/122/41 8/123/41
f 8/124/42 7/125/42 23/126/42
f 24/127/43 22/128/43 5/129/43
f 5/130/44 8/131/44 24/132/44